<?xml version="1.0" encoding="UTF-8" standalone="no"?>
<!DOCTYPE svg PUBLIC "-//W3C//DTD SVG 1.1//EN"
 "http://www.w3.org/Graphics/SVG/1.1/DTD/svg11.dtd">
<!-- Generated by graphviz version 2.40.1 (20161225.0304)
 -->
<!-- Title: G Pages: 1 -->
<svg width="867pt" height="229pt"
 viewBox="0.00 0.00 866.71 228.69" xmlns="http://www.w3.org/2000/svg" xmlns:xlink="http://www.w3.org/1999/xlink">
<g id="graph0" class="graph" transform="scale(1 1) rotate(0) translate(4 224.6924)">
<title>G</title>
<polygon fill="#696969" stroke="transparent" points="-4,4 -4,-224.6924 862.7062,-224.6924 862.7062,4 -4,4"/>
<!-- Organization -->
<g id="node1" class="node">
<title>Organization</title>
<polygon fill="#d2691e" stroke="#d2691e" points="507.0183,-191.2 417.8527,-191.2 417.8527,-155.2 507.0183,-155.2 507.0183,-191.2"/>
<text text-anchor="middle" x="462.4355" y="-169" font-family="Times,serif" font-size="14.00" fill="#062744">Organization</text>
</g>
<!-- Functional -->
<g id="node2" class="node">
<title>Functional</title>
<polygon fill="#ffff00" stroke="#ffff00" points="837.3192,-191.2 761.5518,-191.2 761.5518,-155.2 837.3192,-155.2 837.3192,-191.2"/>
<text text-anchor="middle" x="799.4355" y="-169" font-family="Times,serif" font-size="14.00" fill="#062744">Functional</text>
</g>
<!-- Organization&#45;&gt;Functional -->
<g id="edge1" class="edge">
<title>Organization&#45;&gt;Functional</title>
<path fill="none" stroke="#adff2f" d="M487.1669,-191.3106C498.2818,-198.3662 511.921,-205.611 525.4355,-209.2 572.257,-221.6341 696.9543,-222.8516 743.4355,-209.2 752.379,-206.5733 761.2452,-202.0287 769.1953,-197.0354"/>
<polygon fill="#adff2f" stroke="#adff2f" points="771.3961,-199.7731 777.7372,-191.2853 767.4872,-193.9661 771.3961,-199.7731"/>
</g>
<!-- Divisional -->
<g id="node3" class="node">
<title>Divisional</title>
<polygon fill="#ffff00" stroke="#ffff00" points="743.7644,-191.2 669.1066,-191.2 669.1066,-155.2 743.7644,-155.2 743.7644,-191.2"/>
<text text-anchor="middle" x="706.4355" y="-169" font-family="Times,serif" font-size="14.00" fill="#062744">Divisional</text>
</g>
<!-- Organization&#45;&gt;Divisional -->
<g id="edge2" class="edge">
<title>Organization&#45;&gt;Divisional</title>
<path fill="none" stroke="#adff2f" d="M487.1669,-191.3106C498.2818,-198.3662 511.921,-205.611 525.4355,-209.2 579.5595,-223.5734 597.7704,-225.2016 651.4355,-209.2 660.2555,-206.5701 668.9769,-202.0243 676.7864,-197.0309"/>
<polygon fill="#adff2f" stroke="#adff2f" points="678.9042,-199.8225 685.1727,-191.2811 674.9459,-194.0491 678.9042,-199.8225"/>
</g>
<!-- Matrix -->
<g id="node4" class="node">
<title>Matrix</title>
<polygon fill="#ffff00" stroke="#ffff00" points="651.5366,-191.2 597.3344,-191.2 597.3344,-155.2 651.5366,-155.2 651.5366,-191.2"/>
<text text-anchor="middle" x="624.4355" y="-169" font-family="Times,serif" font-size="14.00" fill="#062744">Matrix</text>
</g>
<!-- Organization&#45;&gt;Matrix -->
<g id="edge3" class="edge">
<title>Organization&#45;&gt;Matrix</title>
<path fill="none" stroke="#adff2f" d="M487.1669,-191.3106C498.2818,-198.3662 511.921,-205.611 525.4355,-209.2 548.6315,-215.36 556.7884,-217.1442 579.4355,-209.2 586.5752,-206.6955 593.4236,-202.5291 599.5298,-197.9013"/>
<polygon fill="#adff2f" stroke="#adff2f" points="601.8876,-200.493 607.354,-191.4173 597.421,-195.1032 601.8876,-200.493"/>
</g>
<!-- Flat -->
<g id="node5" class="node">
<title>Flat</title>
<polygon fill="#ffff00" stroke="#ffff00" points="579.4355,-191.2 525.4355,-191.2 525.4355,-155.2 579.4355,-155.2 579.4355,-191.2"/>
<text text-anchor="middle" x="552.4355" y="-169" font-family="Times,serif" font-size="14.00" fill="#062744">Flat</text>
</g>
<!-- Organization&#45;&gt;Flat -->
<g id="edge4" class="edge">
<title>Organization&#45;&gt;Flat</title>
<path fill="none" stroke="#adff2f" d="M507.0839,-173.2C509.7191,-173.2 512.3543,-173.2 514.9895,-173.2"/>
<polygon fill="#adff2f" stroke="#adff2f" points="515.1537,-176.7001 525.1537,-173.2 515.1537,-169.7001 515.1537,-176.7001"/>
</g>
<!-- respauthor -->
<g id="node6" class="node">
<title>respauthor</title>
<polygon fill="#adff2f" stroke="#adff2f" points="183.1533,-119.0019 87.7177,-119.0019 87.7177,-77.7981 183.1533,-77.7981 183.1533,-119.0019"/>
<text text-anchor="middle" x="135.4355" y="-102.6" font-family="Times,serif" font-size="14.00" fill="#062744">responsibility </text>
<text text-anchor="middle" x="135.4355" y="-85.8" font-family="Times,serif" font-size="14.00" fill="#062744"> and authority</text>
</g>
<!-- Organization&#45;&gt;respauthor -->
<g id="edge5" class="edge">
<title>Organization&#45;&gt;respauthor</title>
<path fill="none" stroke="#adff2f" d="M417.6532,-162.9562C359.3754,-149.6254 257.4379,-126.3076 193.3404,-111.6455"/>
<polygon fill="#adff2f" stroke="#adff2f" points="193.9192,-108.1876 183.3905,-109.3695 192.3582,-115.0113 193.9192,-108.1876"/>
</g>
<!-- grouping -->
<g id="node7" class="node">
<title>grouping</title>
<polygon fill="#adff2f" stroke="#adff2f" points="422.6069,-119.0019 330.2641,-119.0019 330.2641,-77.7981 422.6069,-77.7981 422.6069,-119.0019"/>
<text text-anchor="middle" x="376.4355" y="-102.6" font-family="Times,serif" font-size="14.00" fill="#062744">grouping / </text>
<text text-anchor="middle" x="376.4355" y="-85.8" font-family="Times,serif" font-size="14.00" fill="#062744"> team creteria</text>
</g>
<!-- Organization&#45;&gt;grouping -->
<g id="edge6" class="edge">
<title>Organization&#45;&gt;grouping</title>
<path fill="none" stroke="#adff2f" d="M441.6173,-155.093C431.5198,-146.3105 419.175,-135.5734 407.9554,-125.815"/>
<polygon fill="#adff2f" stroke="#adff2f" points="410.2514,-123.1733 400.4092,-119.2515 405.6575,-128.4551 410.2514,-123.1733"/>
</g>
<!-- location -->
<g id="node8" class="node">
<title>location</title>
<polygon fill="#adff2f" stroke="#adff2f" points="579.0366,-116.4 517.8344,-116.4 517.8344,-80.4 579.0366,-80.4 579.0366,-116.4"/>
<text text-anchor="middle" x="548.4355" y="-94.2" font-family="Times,serif" font-size="14.00" fill="#062744">location</text>
</g>
<!-- Organization&#45;&gt;location -->
<g id="edge7" class="edge">
<title>Organization&#45;&gt;location</title>
<path fill="none" stroke="#adff2f" d="M483.2537,-155.093C494.2639,-145.5167 507.9459,-133.6165 519.9278,-123.1951"/>
<polygon fill="#adff2f" stroke="#adff2f" points="522.2626,-125.8031 527.5109,-116.5995 517.6687,-120.5213 522.2626,-125.8031"/>
</g>
<!-- valuestream -->
<g id="node10" class="node">
<title>valuestream</title>
<polygon fill="#adff2f" stroke="#adff2f" points="779.071,-116.4 691.8,-116.4 691.8,-80.4 779.071,-80.4 779.071,-116.4"/>
<text text-anchor="middle" x="735.4355" y="-94.2" font-family="Times,serif" font-size="14.00" fill="#062744">value stream</text>
</g>
<!-- Organization&#45;&gt;valuestream -->
<g id="edge8" class="edge">
<title>Organization&#45;&gt;valuestream</title>
<path fill="none" stroke="#adff2f" d="M507.1505,-158.0348C510.2853,-157.0518 513.4032,-156.0975 516.4355,-155.2 572.4603,-138.6181 637.318,-122.1291 681.8283,-111.2235"/>
<polygon fill="#adff2f" stroke="#adff2f" points="682.6804,-114.6183 691.5656,-108.8473 681.0209,-107.8179 682.6804,-114.6183"/>
</g>
<!-- comcontr -->
<g id="node17" class="node">
<title>comcontr</title>
<polygon fill="#adff2f" stroke="#adff2f" points="82.8066,-41.4019 .0644,-41.4019 .0644,-.1981 82.8066,-.1981 82.8066,-41.4019"/>
<text text-anchor="middle" x="41.4355" y="-25" font-family="Times,serif" font-size="14.00" fill="#062744">command &#160;</text>
<text text-anchor="middle" x="41.4355" y="-8.2" font-family="Times,serif" font-size="14.00" fill="#062744"> and control</text>
</g>
<!-- respauthor&#45;&gt;comcontr -->
<g id="edge17" class="edge">
<title>respauthor&#45;&gt;comcontr</title>
<path fill="none" stroke="#adff2f" d="M110.2452,-77.6046C99.2871,-68.5584 86.2966,-57.8343 74.5707,-48.1542"/>
<polygon fill="#adff2f" stroke="#adff2f" points="76.6353,-45.32 66.6953,-41.6528 72.1788,-50.7182 76.6353,-45.32"/>
</g>
<!-- selfdrive -->
<g id="node18" class="node">
<title>selfdrive</title>
<polygon fill="#adff2f" stroke="#adff2f" points="170.0732,-38.8 100.7978,-38.8 100.7978,-2.8 170.0732,-2.8 170.0732,-38.8"/>
<text text-anchor="middle" x="135.4355" y="-16.6" font-family="Times,serif" font-size="14.00" fill="#062744">self&#45;drive</text>
</g>
<!-- respauthor&#45;&gt;selfdrive -->
<g id="edge18" class="edge">
<title>respauthor&#45;&gt;selfdrive</title>
<path fill="none" stroke="#adff2f" d="M135.4355,-77.6046C135.4355,-68.8628 135.4355,-58.5542 135.4355,-49.1349"/>
<polygon fill="#adff2f" stroke="#adff2f" points="138.9356,-49.009 135.4355,-39.0091 131.9356,-49.0091 138.9356,-49.009"/>
</g>
<!-- function -->
<g id="node11" class="node">
<title>function</title>
<polygon fill="#adff2f" stroke="#adff2f" points="250.5928,-38.8 188.2782,-38.8 188.2782,-2.8 250.5928,-2.8 250.5928,-38.8"/>
<text text-anchor="middle" x="219.4355" y="-16.6" font-family="Times,serif" font-size="14.00" fill="#062744">function</text>
</g>
<!-- grouping&#45;&gt;function -->
<g id="edge9" class="edge">
<title>grouping&#45;&gt;function</title>
<path fill="none" stroke="#adff2f" d="M333.9412,-77.7707C311.9614,-67.0553 284.7185,-53.704 260.4355,-41.6 260.2391,-41.5021 260.0421,-41.4039 259.8447,-41.3054"/>
<polygon fill="#adff2f" stroke="#adff2f" points="261.2596,-38.0995 250.7518,-36.7446 258.1212,-44.3566 261.2596,-38.0995"/>
</g>
<!-- product -->
<g id="node12" class="node">
<title>product</title>
<polygon fill="#adff2f" stroke="#adff2f" points="327.7018,-38.8 269.1692,-38.8 269.1692,-2.8 327.7018,-2.8 327.7018,-38.8"/>
<text text-anchor="middle" x="298.4355" y="-16.6" font-family="Times,serif" font-size="14.00" fill="#062744">product</text>
</g>
<!-- grouping&#45;&gt;product -->
<g id="edge10" class="edge">
<title>grouping&#45;&gt;product</title>
<path fill="none" stroke="#adff2f" d="M355.5329,-77.6046C345.8012,-67.9228 334.1378,-56.3192 323.8964,-46.1304"/>
<polygon fill="#adff2f" stroke="#adff2f" points="326.2962,-43.5807 316.7384,-39.0091 321.3592,-48.5432 326.2962,-43.5807"/>
</g>
<!-- territory -->
<g id="node13" class="node">
<title>territory</title>
<polygon fill="#adff2f" stroke="#adff2f" points="407.3038,-38.8 345.5672,-38.8 345.5672,-2.8 407.3038,-2.8 407.3038,-38.8"/>
<text text-anchor="middle" x="376.4355" y="-16.6" font-family="Times,serif" font-size="14.00" fill="#062744">territory</text>
</g>
<!-- grouping&#45;&gt;territory -->
<g id="edge11" class="edge">
<title>grouping&#45;&gt;territory</title>
<path fill="none" stroke="#adff2f" d="M376.4355,-77.6046C376.4355,-68.8628 376.4355,-58.5542 376.4355,-49.1349"/>
<polygon fill="#adff2f" stroke="#adff2f" points="379.9356,-49.009 376.4355,-39.0091 372.9356,-49.0091 379.9356,-49.009"/>
</g>
<!-- customer -->
<g id="node14" class="node">
<title>customer</title>
<polygon fill="#adff2f" stroke="#adff2f" points="493.2518,-38.8 425.6192,-38.8 425.6192,-2.8 493.2518,-2.8 493.2518,-38.8"/>
<text text-anchor="middle" x="459.4355" y="-16.6" font-family="Times,serif" font-size="14.00" fill="#062744">customer</text>
</g>
<!-- grouping&#45;&gt;customer -->
<g id="edge12" class="edge">
<title>grouping&#45;&gt;customer</title>
<path fill="none" stroke="#adff2f" d="M398.678,-77.6046C409.0335,-67.9228 421.4446,-56.3192 432.3425,-46.1304"/>
<polygon fill="#adff2f" stroke="#adff2f" points="435.0449,-48.3952 439.9593,-39.0091 430.2643,-43.2819 435.0449,-48.3952"/>
</g>
<!-- co_located -->
<g id="node9" class="node">
<title>co_located</title>
<polygon fill="#adff2f" stroke="#adff2f" points="585.7363,-38.8 511.1347,-38.8 511.1347,-2.8 585.7363,-2.8 585.7363,-38.8"/>
<text text-anchor="middle" x="548.4355" y="-16.6" font-family="Times,serif" font-size="14.00" fill="#062744">co&#45;located</text>
</g>
<!-- location&#45;&gt;co_located -->
<g id="edge13" class="edge">
<title>location&#45;&gt;co_located</title>
<path fill="none" stroke="#adff2f" d="M548.4355,-80.0099C548.4355,-70.829 548.4355,-59.5167 548.4355,-49.2482"/>
<polygon fill="#adff2f" stroke="#adff2f" points="551.9356,-49.0581 548.4355,-39.0581 544.9356,-49.0581 551.9356,-49.0581"/>
</g>
<!-- distributed -->
<g id="node15" class="node">
<title>distributed</title>
<polygon fill="#adff2f" stroke="#adff2f" points="679.3178,-38.8 603.5532,-38.8 603.5532,-2.8 679.3178,-2.8 679.3178,-38.8"/>
<text text-anchor="middle" x="641.4355" y="-16.6" font-family="Times,serif" font-size="14.00" fill="#062744">distributed</text>
</g>
<!-- location&#45;&gt;distributed -->
<g id="edge14" class="edge">
<title>location&#45;&gt;distributed</title>
<path fill="none" stroke="#adff2f" d="M570.4752,-80.0099C582.7521,-69.7659 598.2091,-56.8685 611.5603,-45.7281"/>
<polygon fill="#adff2f" stroke="#adff2f" points="614.1182,-48.1522 619.554,-39.0581 609.6335,-42.7775 614.1182,-48.1522"/>
</g>
<!-- end_to_end -->
<g id="node16" class="node">
<title>end_to_end</title>
<polygon fill="#adff2f" stroke="#adff2f" points="773.5773,-38.8 697.2937,-38.8 697.2937,-2.8 773.5773,-2.8 773.5773,-38.8"/>
<text text-anchor="middle" x="735.4355" y="-16.6" font-family="Times,serif" font-size="14.00" fill="#062744">end&#45;to&#45;end</text>
</g>
<!-- valuestream&#45;&gt;end_to_end -->
<g id="edge15" class="edge">
<title>valuestream&#45;&gt;end_to_end</title>
<path fill="none" stroke="#adff2f" d="M735.4355,-80.0099C735.4355,-70.829 735.4355,-59.5167 735.4355,-49.2482"/>
<polygon fill="#adff2f" stroke="#adff2f" points="738.9356,-49.0581 735.4355,-39.0581 731.9356,-49.0581 738.9356,-49.0581"/>
</g>
<!-- activities -->
<g id="node19" class="node">
<title>activities</title>
<polygon fill="#adff2f" stroke="#adff2f" points="858.4785,-38.8 792.3925,-38.8 792.3925,-2.8 858.4785,-2.8 858.4785,-38.8"/>
<text text-anchor="middle" x="825.4355" y="-16.6" font-family="Times,serif" font-size="14.00" fill="#062744">activities</text>
</g>
<!-- valuestream&#45;&gt;activities -->
<g id="edge16" class="edge">
<title>valuestream&#45;&gt;activities</title>
<path fill="none" stroke="#adff2f" d="M756.7642,-80.0099C768.6451,-69.7659 783.6035,-56.8685 796.5241,-45.7281"/>
<polygon fill="#adff2f" stroke="#adff2f" points="798.9718,-48.239 804.2599,-39.0581 794.4008,-42.9375 798.9718,-48.239"/>
</g>
</g>
</svg>
